<?xml version="1.0" encoding="iso-8859-1"?>
<!-- Uploaded to: SVG Repo, www.svgrepo.com, Generator: SVG Repo Mixer Tools -->
<svg version="1.1" id="Layer_1" xmlns="http://www.w3.org/2000/svg" xmlns:xlink="http://www.w3.org/1999/xlink" 
	 viewBox="0 0 511.999 511.999" xml:space="preserve">
<rect x="127.7" y="376.076" style="fill:#AEB5CA;" width="79.938" height="39.946"/>
<path style="fill:#C7CFE2;" d="M327.885,358.291c0,9.781-8.003,17.784-17.784,17.784H25.789c-9.781,0-17.784-8.003-17.784-17.784
	V177.723c0-9.781,8.003-17.784,17.784-17.784h284.31c9.781,0,17.784,8.003,17.784,17.784L327.885,358.291L327.885,358.291z"/>
<rect x="31.699" y="183.955" style="fill:#464655;" width="272.171" height="168.105"/>
<path style="fill:#5B5D6E;" d="M503.995,400.09h-144.09V111.987c0-8.885,7.203-16.087,16.087-16.087h111.915
	c8.885,0,16.088,7.203,16.088,16.087V400.09z"/>
<g>
	<rect x="383.921" y="127.92" style="fill:#AEB5CA;" width="96.06" height="24.015"/>
	<rect x="383.921" y="175.95" style="fill:#AEB5CA;" width="96.06" height="24.015"/>
</g>
<circle style="fill:#FF6464;" cx="431.951" cy="296.026" r="16.01"/>
<path d="M310.1,151.934H25.789C11.568,151.934,0,163.504,0,177.723v180.567c0,14.22,11.568,25.789,25.789,25.789h93.902v24.015
	h-7.943c-4.422,0-8.005,3.583-8.005,8.005c0,4.421,3.583,8.005,8.005,8.005h112.63c4.421,0,8.005-3.584,8.005-8.005
	c0-4.422-3.584-8.005-8.005-8.005h-8.738V384.08h94.46c14.22,0,25.789-11.568,25.789-25.789V177.723
	C335.89,163.504,324.32,151.934,310.1,151.934z M199.629,408.095h-63.928V384.08h63.928V408.095z M319.88,358.291
	c0,5.392-4.387,9.779-9.779,9.779H25.789c-5.392,0-9.779-4.387-9.779-9.779V177.723c0-5.392,4.387-9.779,9.779-9.779H310.1
	c5.392,0,9.779,4.387,9.779,9.779L319.88,358.291L319.88,358.291z M303.87,175.949H31.699c-4.421,0-8.005,3.583-8.005,8.005V352.06
	c0,4.421,3.584,8.005,8.005,8.005H303.87c4.421,0,8.005-3.584,8.005-8.005V183.954C311.875,179.534,308.29,175.949,303.87,175.949z
	 M295.865,344.055H39.704V191.959h256.161V344.055z M487.907,87.894H375.992c-13.284,0-24.093,10.808-24.093,24.093V416.1
	c0,4.421,3.583,8.005,8.005,8.005c4.421,0,8.005-3.584,8.005-8.005v-8.005h128.08v8.005c0,4.421,3.583,8.005,8.005,8.005
	c4.421,0,8.005-3.584,8.005-8.005V111.987C512,98.703,501.191,87.894,487.907,87.894z M367.91,392.085V111.987
	c0-4.457,3.625-8.083,8.083-8.083h111.915c4.457,0,8.083,3.626,8.083,8.083v280.098H367.91z M479.98,119.914h-96.06
	c-4.422,0-8.005,3.584-8.005,8.005v24.015c0,4.421,3.583,8.005,8.005,8.005h96.06c4.421,0,8.005-3.584,8.005-8.005v-24.015
	C487.985,123.498,484.401,119.914,479.98,119.914z M471.975,143.929h-80.05v-8.005h80.05V143.929z M479.98,167.944h-96.06
	c-4.422,0-8.005,3.583-8.005,8.005v24.015c0,4.421,3.583,8.005,8.005,8.005h96.06c4.421,0,8.005-3.584,8.005-8.005v-24.015
	C487.985,171.529,484.401,167.944,479.98,167.944z M471.975,191.959h-80.05v-8.005h80.05V191.959z M455.965,296.025
	c0,13.242-10.773,24.015-24.015,24.015s-24.015-10.773-24.015-24.015s10.773-24.015,24.015-24.015c4.421,0,8.005,3.583,8.005,8.005
	c0,4.421-3.584,8.005-8.005,8.005c-4.414,0-8.005,3.591-8.005,8.005c0,4.414,3.591,8.005,8.005,8.005
	c4.414,0,8.005-3.591,8.005-8.005c0-4.422,3.583-8.005,8.005-8.005C452.381,288.02,455.965,291.604,455.965,296.025z
	 M447.96,344.055c0,8.828-7.183,16.01-16.01,16.01c-8.828,0-16.01-7.182-16.01-16.01c0-8.828,7.182-16.01,16.01-16.01
	C440.777,328.045,447.96,335.227,447.96,344.055z"/>
</svg>